PathFileType	4	(X/Y/Z)	C:\Users\WrightLab\Desktop\Jo\P5V211.trc
DataRate	CameraRate	NumFrames	NumMarkers	Units	OrigDataRate	OrigDataStartFrame	OrigNumFrames
100.00	100.00	       55	19	mm	100.00	95	       754
Frame#	Time	Headset_Front			Headset_Back			Headset_Left			Headset_Right			Left_Shoulder			Right_Shoulder			Sternum			C7			Left Elbow			Right Elbow			Left Wrist			Right Wrist			Left ASIS			Right ASIS			S2			Left Knee			Right Knee			Left Ankle			Right Ankle			
		X1	Y1	Z1	X2	Y2	Z2	X3	Y3	Z3	X4	Y4	Z4	X5	Y5	Z5	X6	Y6	Z6	X7	Y7	Z7	X8	Y8	Z8	X9	Y9	Z9	X10	Y10	Z10	X11	Y11	Z11	X12	Y12	Z12	X13	Y13	Z13	X14	Y14	Z14	X15	Y15	Z15	X16	Y16	Z16	X17	Y17	Z17	X18	Y18	Z18	X19	Y19	Z19	

95	0.940																												-487.86810	1164.86023	-1409.17981	54.07546	944.90546	-1278.77966	-437.00327	1042.20068	-1212.41821										-24.41115	468.09528	-1322.95911	-395.13065	471.95370	-1341.95142							
96	0.950																												-487.44989	1164.81897	-1409.49756	54.06577	944.84656	-1278.93469	-437.00107	1042.19189	-1212.41699										-24.41246	468.09406	-1322.96716	-395.17682	471.98828	-1341.37793							
97	0.960																												-487.36618	1164.79871	-1409.39758	54.32028	944.96545	-1279.50647	-436.99420	1042.18738	-1212.41516										-24.42115	468.08640	-1323.02087	-395.96094	472.09091	-1341.32397							
98	0.970																												-487.29465	1164.79150	-1409.32764	54.32572	944.87036	-1279.52429	-437.01151	1042.19141	-1212.41895										-24.42610	468.08203	-1323.05151	-395.94244	472.01865	-1341.31384							
99	0.980																												-487.21463	1164.81812	-1409.23621	54.33649	944.84119	-1279.58972	-437.00226	1042.19751	-1212.41772										-24.45521	468.05618	-1323.23145	-395.96545	472.01456	-1341.31592							
100	0.990																												-487.14963	1164.81189	-1409.18518	54.12762	944.58087	-1279.19714	-436.98306	1042.18616	-1212.41284										-24.45874	468.05310	-1323.25330	-395.95709	471.96780	-1341.30969							
101	1.000																												-487.09271	1164.80115	-1409.13037	53.85449	944.30670	-1278.77063	-436.91370	1042.32324	-1212.10754										-24.87521	468.89682	-1322.01257	-395.97632	471.96094	-1341.31104							
102	1.010																												-487.02423	1164.80884	-1409.03491	54.15492	944.44757	-1279.21997	-436.90457	1042.32471	-1212.10596										-24.91488	468.81683	-1322.25269	-396.23093	471.67300	-1341.19531							
103	1.020																												-486.99414	1164.82703	-1408.97864	53.50169	944.85071	-1279.81909	-436.88031	1042.31885	-1212.10059										-24.97690	468.69019	-1322.62793	-396.32394	471.55511	-1340.90845							
104	1.030																												-486.92126	1164.83618	-1408.84021	53.52708	944.73456	-1279.73718	-436.84503	1042.30957	-1212.09277										-24.99379	468.64349	-1322.72876	-396.28702	471.76733	-1341.21204							
105	1.040																												-486.87167	1164.88159	-1408.71533	53.49470	944.58020	-1279.77051	-436.80679	1042.29785	-1212.08411										-25.03160	468.53903	-1322.95447	-396.36343	471.58978	-1340.92773							
106	1.050																												-486.58551	1165.17798	-1409.47290	53.51180	944.50006	-1279.79089	-436.77026	1042.29663	-1212.07678										-25.08046	468.40399	-1323.24609	-396.34818	471.58368	-1340.92090							
107	1.060																												-486.50510	1165.19568	-1409.29285	53.54089	944.33612	-1279.62805	-436.74924	1042.27588	-1212.07068										-25.15435	468.23257	-1323.69080	-396.64038	471.56790	-1340.64685							
108	1.070																												-486.46948	1165.23669	-1409.18701	54.61652	943.36853	-1278.49097	-436.72565	1042.27026	-1212.06555										-26.43011	469.30429	-1320.04260	-396.82053	471.85831	-1340.67932							
109	1.080																												-486.43173	1165.25610	-1409.04407	54.29583	943.21307	-1278.29272	-436.73965	1042.26917	-1212.06812										-26.52728	469.11972	-1320.63098	-396.75317	471.82394	-1340.68640							
110	1.090																												-486.41696	1165.27612	-1409.00134	54.25406	943.10895	-1278.43701	-436.74854	1042.27637	-1212.07056										-27.24164	469.69464	-1319.31921	-396.75800	471.80762	-1340.68689							
111	1.100																												-486.40292	1165.31152	-1408.88831	54.14737	942.65753	-1277.90051	-436.74905	1042.26135	-1212.06921										-27.36308	469.48764	-1320.05652	-396.77133	471.39459	-1340.84094							
112	1.110																												-486.36490	1165.34216	-1408.74048	54.13912	942.60760	-1277.97998	-436.74097	1042.25696	-1212.06726										-27.71689	469.96457	-1320.38684	-396.84427	470.95905	-1340.25879							
113	1.120																												-486.34729	1165.37195	-1408.63867	54.07353	942.49438	-1278.19128	-436.34360	1041.54834	-1211.82556										-27.89998	469.60513	-1321.49292	-396.67343	471.47913	-1340.90247							
114	1.130																												-486.31259	1165.38782	-1408.51123	54.06230	942.44983	-1278.30737	-436.35913	1041.55042	-1211.82874										-28.47100	470.23547	-1320.45728	-396.24731	471.20276	-1341.23767							
115	1.140																												-486.27844	1165.42798	-1408.42468	54.03567	942.36084	-1278.37415	-436.32956	1041.53442	-1211.82141										-28.60600	470.64661	-1321.45459	-396.78467	471.34805	-1341.30359							
116	1.150																												-486.25476	1165.45166	-1408.29382	54.01429	942.28174	-1278.61707	-436.31879	1041.51953	-1211.81787										-28.70579	470.42139	-1322.05359	-396.12796	471.05316	-1341.90222							
117	1.160																												-486.24283	1165.46326	-1408.20935	53.98144	942.22260	-1278.72034	-436.30704	1041.50854	-1211.81445										-28.76796	470.30475	-1322.42957	-396.14850	471.60318	-1341.92761							
118	1.170																												-486.22556	1165.48999	-1408.10559	54.10341	941.67365	-1278.19678	-436.31061	1041.50159	-1211.81445										-28.86391	470.13123	-1323.01074	-395.94366	471.17188	-1341.74353							
119	1.180																												-486.18942	1165.49243	-1407.97913	54.11032	941.59088	-1278.35303	-436.40808	1041.35364	-1211.45459										-28.79821	470.29041	-1322.61780	-396.18091	471.38684	-1342.30334							
120	1.190																												-486.15869	1165.54138	-1407.84387	54.10456	941.53253	-1278.50928	-436.41794	1041.34167	-1211.45544										-28.70203	470.46872	-1322.03577	-396.16467	471.32089	-1342.26221							
121	1.200																												-486.10205	1165.58057	-1407.63867	54.11929	941.40741	-1278.61951	-436.45444	1041.35278	-1211.46362										-28.64754	470.60052	-1321.70984	-396.18021	471.38263	-1342.30273							
122	1.210																												-486.02838	1165.61633	-1407.42078	54.12805	941.33472	-1278.70288	-436.41742	1041.29407	-1211.16833										-27.94325	470.21014	-1322.30811	-396.15097	471.32880	-1342.26160							
123	1.220																												-485.93677	1165.67981	-1407.19727	54.16389	941.27142	-1278.80603	-436.45474	1041.21655	-1210.92993										-26.62442	469.04590	-1325.38806	-395.18658	471.04944	-1342.92664							
124	1.230																												-485.82004	1165.74194	-1406.92249	54.16309	941.23682	-1278.87256	-436.49609	1041.07751	-1210.81165										-26.51836	469.29880	-1324.75134	-394.74582	471.41879	-1343.51221							
125	1.240																												-485.73102	1165.79980	-1406.66833	54.18067	941.16907	-1278.96350	-436.40341	1041.14636	-1210.48120										-25.78319	468.83563	-1326.34338	-394.83960	470.97952	-1343.45337							
126	1.250																												-485.62158	1165.83435	-1406.43530	54.55446	941.09253	-1279.18494	-436.24750	1041.26489	-1210.25403										-25.33648	468.12112	-1326.80859	-394.80463	471.36978	-1344.28455							
127	1.260																												-485.19531	1166.12366	-1406.96997	54.83596	940.63184	-1278.64697	-436.19467	1041.23438	-1210.24060										-25.26288	468.25406	-1326.36108	-394.53885	470.69330	-1344.53796							
128	1.270																												-485.06168	1166.19214	-1406.67297	54.86481	940.59210	-1278.68347	-436.11984	1041.21350	-1210.22388										-25.18163	468.39737	-1325.86670	-394.46033	470.77048	-1344.83032							
129	1.280																												-484.95355	1166.24438	-1406.46228	54.89759	940.51257	-1278.81189	-435.25082	1040.95898	-1209.98718										-25.12036	468.52393	-1325.49609	-393.89929	470.83426	-1345.43542							
130	1.290																												-484.84552	1166.30176	-1406.27881	54.90733	940.43347	-1278.93420	-435.11639	1040.90894	-1209.95581										-25.05137	468.62424	-1325.07385	-393.85107	470.87073	-1345.43433							
131	1.300																												-484.70767	1166.33374	-1406.06946	54.95539	940.37292	-1279.00952	-434.99814	1040.87158	-1209.60120										-24.96428	468.79938	-1324.54639	-393.35236	470.46329	-1345.47339							
132	1.310																												-484.58582	1166.38892	-1405.85608	55.04389	939.82758	-1278.12280	-434.85669	1040.81555	-1209.56787										-24.88071	468.95981	-1324.03943	-393.29672	471.26022	-1346.95349							
133	1.320																												-484.11847	1166.18030	-1405.34387	55.09028	939.79437	-1278.16064	-434.16406	1040.81287	-1209.66626										-24.34277	468.26678	-1324.67798	-393.34882	470.30289	-1346.51257							
134	1.330																												-483.95389	1166.23560	-1405.12183	55.12807	939.73523	-1278.15967	-434.03848	1040.66492	-1209.43384										-24.31367	468.34729	-1324.50403	-393.06201	470.77780	-1346.36206							
135	1.340																												-483.77255	1166.28259	-1404.87732	55.15607	939.72345	-1278.19519	-433.18787	1040.31213	-1209.30444										-24.31367	468.34729	-1324.50403	-393.03391	470.70886	-1347.14014							
136	1.350																												-483.58609	1166.33643	-1404.63306	55.22750	939.69458	-1278.19556	-433.06216	1040.27136	-1209.27576										-23.84113	468.22714	-1326.11621	-392.69354	470.82452	-1347.69958							
137	1.360																												-483.42004	1166.37915	-1404.41479	55.26508	939.68884	-1278.16895	-432.82239	1040.51147	-1208.66736										-23.29386	468.01062	-1327.74536	-392.45190	471.07568	-1348.03015							
138	1.370																												-483.23386	1166.38171	-1404.18823	55.30875	939.65137	-1278.13269	-432.24341	1040.03162	-1208.65125										-23.18211	468.23285	-1327.06689	-392.41956	471.13638	-1348.22742							
139	1.380																												-483.04749	1166.39319	-1404.05859	55.35801	939.60095	-1278.13733	-432.16272	1039.99182	-1208.63147										-23.05513	468.45947	-1326.29272	-391.42087	471.41635	-1347.95264							
140	1.390																												-482.47330	1166.41199	-1404.26526	55.42118	939.60992	-1278.02917	-432.07166	1039.96655	-1208.61096										-22.43618	467.87024	-1327.41260	-391.03946	471.75330	-1348.57727							
141	1.400																												-482.00583	1166.06958	-1403.49646	55.43913	939.59589	-1278.00208	-432.01608	1039.94458	-1208.59778										-21.16903	466.59668	-1330.83154	-390.77222	472.00507	-1348.30615							
142	1.410																												-481.75549	1166.10291	-1403.20752	55.50676	939.58496	-1277.88013	-431.98264	1039.95032	-1208.26819										-21.14907	466.63113	-1330.70947	-389.50079	471.46875	-1348.52222							
143	1.420																												-481.46133	1166.09277	-1402.82141	55.58285	939.55493	-1277.82104	-431.96347	1039.95862	-1208.26514										-20.83331	465.90329	-1331.31335	-389.03998	471.07434	-1348.88232							
144	1.430																												-481.12823	1166.04871	-1402.34631	55.64126	939.58765	-1277.72986	-431.90454	1040.02466	-1207.93762										-20.45713	466.05023	-1332.57544	-388.87350	471.02505	-1348.85913							
145	1.440																												-480.76260	1166.03162	-1401.78381	55.70410	939.58191	-1277.59900	-431.84302	1039.98950	-1207.92200										-20.82996	465.89023	-1331.29065	-388.18433	471.32419	-1349.21021							
146	1.450																												-480.27023	1165.99988	-1401.10388	55.77353	939.57147	-1277.49060	-431.21570	1039.69421	-1207.98010										-21.14227	466.62729	-1330.66602	-387.79398	471.62509	-1348.70349							
147	1.460																												-479.92044	1166.00439	-1400.71216	55.84411	939.58459	-1277.34338	-429.71167	1039.49377	-1207.95605										-21.20870	466.49463	-1331.07031	-387.09830	472.13956	-1348.33569							
148	1.470																												-479.63513	1166.02136	-1400.37866	55.88282	939.61084	-1277.24280	-429.47012	1039.74548	-1207.57581										-21.87866	466.82559	-1329.77979	-386.76233	472.28192	-1348.20728							
149	1.480																												-479.41269	1166.02625	-1400.14209	55.94216	939.65436	-1277.05969	-428.66486	1039.44910	-1207.61902										-23.02742	468.50150	-1326.12292	-386.00198	471.93130	-1347.97168							
